<svg width="231" height="40" viewBox="0 0 231 40" fill="none" xmlns="http://www.w3.org/2000/svg">
<g clip-path="url(#clip0_802_380)">
<path fill-rule="evenodd" clip-rule="evenodd" d="M8 10C8 8.61929 9.11929 7.5 10.5 7.5H14.25C15.6307 7.5 16.75 8.61929 16.75 10V30C16.75 31.3807 15.6307 32.5 14.25 32.5H10.5C9.11929 32.5 8 31.3807 8 30V10ZM14.25 10H10.5V30H14.25V10Z" fill="#00B37E"/>
<path fill-rule="evenodd" clip-rule="evenodd" d="M24.25 10C24.25 8.61929 25.3693 7.5 26.75 7.5H30.5C31.8807 7.5 33 8.61929 33 10V30C33 31.3807 31.8807 32.5 30.5 32.5H26.75C25.3693 32.5 24.25 31.3807 24.25 30V10ZM30.5 10H26.75V30H30.5V10Z" fill="#00B37E"/>
<path fill-rule="evenodd" clip-rule="evenodd" d="M30.5 12.5C30.5 11.8096 31.0596 11.25 31.75 11.25H35.5C36.163 11.25 36.7989 11.5134 37.2678 11.9822C37.7366 12.4511 38 13.087 38 13.75V26.25C38 26.913 37.7366 27.5489 37.2678 28.0178C36.7989 28.4866 36.163 28.75 35.5 28.75H31.75C31.0596 28.75 30.5 28.1904 30.5 27.5C30.5 26.8096 31.0596 26.25 31.75 26.25H35.5L35.5 13.75L31.75 13.75C31.0596 13.75 30.5 13.1904 30.5 12.5Z" fill="#00B37E"/>
<path fill-rule="evenodd" clip-rule="evenodd" d="M3.73223 11.9822C4.20107 11.5134 4.83696 11.25 5.5 11.25H9.25C9.94036 11.25 10.5 11.8096 10.5 12.5C10.5 13.1904 9.94036 13.75 9.25 13.75L5.5 13.75V26.25H9.25C9.94036 26.25 10.5 26.8096 10.5 27.5C10.5 28.1904 9.94036 28.75 9.25 28.75H5.5C4.83696 28.75 4.20108 28.4866 3.73223 28.0178C3.26339 27.5489 3 26.913 3 26.25V13.75C3 13.087 3.26339 12.4511 3.73223 11.9822Z" fill="#00B37E"/>
<path fill-rule="evenodd" clip-rule="evenodd" d="M14.25 20C14.25 19.3096 14.8096 18.75 15.5 18.75H25.5C26.1904 18.75 26.75 19.3096 26.75 20C26.75 20.6904 26.1904 21.25 25.5 21.25H15.5C14.8096 21.25 14.25 20.6904 14.25 20Z" fill="#00B37E"/>
<path fill-rule="evenodd" clip-rule="evenodd" d="M35.5 20C35.5 19.3096 36.0596 18.75 36.75 18.75H39.25C39.9404 18.75 40.5 19.3096 40.5 20C40.5 20.6904 39.9404 21.25 39.25 21.25H36.75C36.0596 21.25 35.5 20.6904 35.5 20Z" fill="#00B37E"/>
<path fill-rule="evenodd" clip-rule="evenodd" d="M0.5 20C0.5 19.3096 1.05964 18.75 1.75 18.75H4.25C4.94036 18.75 5.5 19.3096 5.5 20C5.5 20.6904 4.94036 21.25 4.25 21.25H1.75C1.05964 21.25 0.5 20.6904 0.5 20Z" fill="#00B37E"/>
</g>
<path d="M67.4395 26.3008V29.5H57.418V26.3008H67.4395ZM58.7441 9.59375V29.5H54.6426V9.59375H58.7441ZM73.7012 14.707V29.5H69.75V14.707H73.7012ZM69.5039 10.8516C69.5039 10.2773 69.7044 9.80339 70.1055 9.42969C70.5065 9.05599 71.0443 8.86914 71.7188 8.86914C72.3841 8.86914 72.9173 9.05599 73.3184 9.42969C73.7285 9.80339 73.9336 10.2773 73.9336 10.8516C73.9336 11.4258 73.7285 11.8997 73.3184 12.2734C72.9173 12.6471 72.3841 12.834 71.7188 12.834C71.0443 12.834 70.5065 12.6471 70.1055 12.2734C69.7044 11.8997 69.5039 11.4258 69.5039 10.8516ZM80.8105 17.8652V29.5H76.873V14.707H80.5645L80.8105 17.8652ZM80.2363 21.584H79.1699C79.1699 20.4902 79.3112 19.5059 79.5938 18.6309C79.8763 17.7467 80.2728 16.9948 80.7832 16.375C81.2936 15.7461 81.8997 15.2676 82.6016 14.9395C83.3125 14.6022 84.1055 14.4336 84.9805 14.4336C85.6732 14.4336 86.3066 14.5339 86.8809 14.7344C87.4551 14.9349 87.9473 15.2539 88.3574 15.6914C88.7767 16.1289 89.0957 16.7077 89.3145 17.4277C89.5423 18.1478 89.6562 19.0273 89.6562 20.0664V29.5H85.6914V20.0527C85.6914 19.3965 85.6003 18.8861 85.418 18.5215C85.2357 18.1569 84.9668 17.9017 84.6113 17.7559C84.265 17.6009 83.8366 17.5234 83.3262 17.5234C82.7975 17.5234 82.3372 17.6283 81.9453 17.8379C81.5625 18.0475 81.2435 18.3392 80.9883 18.7129C80.7422 19.0775 80.5553 19.5059 80.4277 19.998C80.3001 20.4902 80.2363 21.0189 80.2363 21.584ZM100.648 25.4121C100.648 25.1296 100.566 24.8743 100.402 24.6465C100.238 24.4186 99.9329 24.209 99.4863 24.0176C99.0488 23.8171 98.4154 23.6348 97.5859 23.4707C96.8385 23.3066 96.1413 23.1016 95.4941 22.8555C94.8561 22.6003 94.3001 22.2949 93.8262 21.9395C93.3613 21.584 92.9967 21.1647 92.7324 20.6816C92.4681 20.1895 92.3359 19.6289 92.3359 19C92.3359 18.3802 92.4681 17.7969 92.7324 17.25C93.0059 16.7031 93.3932 16.2201 93.8945 15.8008C94.4049 15.3724 95.0247 15.0397 95.7539 14.8027C96.4922 14.5566 97.3216 14.4336 98.2422 14.4336C99.5273 14.4336 100.63 14.6387 101.551 15.0488C102.48 15.459 103.191 16.0241 103.684 16.7441C104.185 17.4551 104.436 18.2663 104.436 19.1777H100.498C100.498 18.7949 100.416 18.4531 100.252 18.1523C100.097 17.8424 99.8509 17.6009 99.5137 17.4277C99.1855 17.2454 98.7572 17.1543 98.2285 17.1543C97.791 17.1543 97.4128 17.2318 97.0938 17.3867C96.7747 17.5326 96.5286 17.7331 96.3555 17.9883C96.1914 18.2344 96.1094 18.5078 96.1094 18.8086C96.1094 19.0365 96.1549 19.2415 96.2461 19.4238C96.3464 19.597 96.5059 19.7565 96.7246 19.9023C96.9434 20.0482 97.2259 20.1849 97.5723 20.3125C97.9277 20.431 98.3652 20.5404 98.8848 20.6406C99.9512 20.8594 100.904 21.1465 101.742 21.502C102.581 21.8483 103.246 22.3223 103.738 22.9238C104.23 23.5163 104.477 24.2956 104.477 25.2617C104.477 25.918 104.331 26.5195 104.039 27.0664C103.747 27.6133 103.328 28.0918 102.781 28.502C102.234 28.903 101.578 29.2174 100.812 29.4453C100.056 29.6641 99.2038 29.7734 98.2559 29.7734C96.8796 29.7734 95.7129 29.5273 94.7559 29.0352C93.8079 28.543 93.0879 27.9186 92.5957 27.1621C92.1126 26.3965 91.8711 25.6126 91.8711 24.8105H95.6035C95.6217 25.3483 95.7585 25.7812 96.0137 26.1094C96.278 26.4375 96.6107 26.6745 97.0117 26.8203C97.4219 26.9661 97.8639 27.0391 98.3379 27.0391C98.8483 27.0391 99.2721 26.9707 99.6094 26.834C99.9466 26.6882 100.202 26.4967 100.375 26.2598C100.557 26.0137 100.648 25.7311 100.648 25.4121ZM122.346 12.998L116.932 29.5H112.57L119.967 9.59375H122.742L122.346 12.998ZM126.844 29.5L121.416 12.998L120.979 9.59375H123.781L131.219 29.5H126.844ZM126.598 22.0898V25.3027H116.084V22.0898H126.598ZM138.93 26.6973C139.413 26.6973 139.841 26.6061 140.215 26.4238C140.589 26.2324 140.88 25.9681 141.09 25.6309C141.309 25.2845 141.423 24.8789 141.432 24.4141H145.137C145.128 25.4531 144.85 26.3783 144.303 27.1895C143.756 27.9915 143.022 28.625 142.102 29.0898C141.181 29.5456 140.151 29.7734 139.012 29.7734C137.863 29.7734 136.861 29.582 136.004 29.1992C135.156 28.8164 134.45 28.2878 133.885 27.6133C133.32 26.9297 132.896 26.1367 132.613 25.2344C132.331 24.3229 132.189 23.3477 132.189 22.3086V21.9121C132.189 20.8639 132.331 19.8887 132.613 18.9863C132.896 18.0749 133.32 17.2819 133.885 16.6074C134.45 15.9238 135.156 15.3906 136.004 15.0078C136.852 14.625 137.845 14.4336 138.984 14.4336C140.197 14.4336 141.258 14.666 142.17 15.1309C143.09 15.5957 143.811 16.2611 144.33 17.127C144.859 17.9837 145.128 19 145.137 20.1758H141.432C141.423 19.6836 141.318 19.237 141.117 18.8359C140.926 18.4349 140.643 18.1159 140.27 17.8789C139.905 17.6328 139.454 17.5098 138.916 17.5098C138.342 17.5098 137.872 17.6328 137.508 17.8789C137.143 18.1159 136.861 18.444 136.66 18.8633C136.46 19.2734 136.318 19.7428 136.236 20.2715C136.163 20.791 136.127 21.3379 136.127 21.9121V22.3086C136.127 22.8828 136.163 23.4342 136.236 23.9629C136.309 24.4915 136.446 24.9609 136.646 25.3711C136.856 25.7812 137.143 26.1048 137.508 26.3418C137.872 26.5788 138.346 26.6973 138.93 26.6973ZM155.404 26.1641V19.5742C155.404 19.1003 155.327 18.6947 155.172 18.3574C155.017 18.0111 154.775 17.7422 154.447 17.5508C154.128 17.3594 153.714 17.2637 153.203 17.2637C152.766 17.2637 152.387 17.3411 152.068 17.4961C151.749 17.6419 151.503 17.8561 151.33 18.1387C151.157 18.4121 151.07 18.7357 151.07 19.1094H147.133C147.133 18.4805 147.279 17.8835 147.57 17.3184C147.862 16.7533 148.286 16.2565 148.842 15.8281C149.398 15.3906 150.059 15.0488 150.824 14.8027C151.599 14.5566 152.465 14.4336 153.422 14.4336C154.57 14.4336 155.591 14.625 156.484 15.0078C157.378 15.3906 158.079 15.9648 158.59 16.7305C159.109 17.4961 159.369 18.4531 159.369 19.6016V25.9316C159.369 26.7428 159.419 27.4082 159.52 27.9277C159.62 28.4382 159.766 28.8848 159.957 29.2676V29.5H155.979C155.787 29.099 155.641 28.5977 155.541 27.9961C155.45 27.3854 155.404 26.7747 155.404 26.1641ZM155.924 20.4902L155.951 22.7188H153.75C153.23 22.7188 152.779 22.778 152.396 22.8965C152.014 23.015 151.699 23.1836 151.453 23.4023C151.207 23.612 151.025 23.8581 150.906 24.1406C150.797 24.4232 150.742 24.7331 150.742 25.0703C150.742 25.4076 150.82 25.7129 150.975 25.9863C151.13 26.2507 151.353 26.4603 151.645 26.6152C151.936 26.7611 152.278 26.834 152.67 26.834C153.262 26.834 153.777 26.7155 154.215 26.4785C154.652 26.2415 154.99 25.9499 155.227 25.6035C155.473 25.2572 155.6 24.929 155.609 24.6191L156.648 26.2871C156.503 26.6608 156.302 27.0482 156.047 27.4492C155.801 27.8503 155.486 28.2285 155.104 28.584C154.721 28.9303 154.26 29.2174 153.723 29.4453C153.185 29.6641 152.547 29.7734 151.809 29.7734C150.87 29.7734 150.018 29.5866 149.252 29.2129C148.495 28.8301 147.894 28.306 147.447 27.6406C147.01 26.9661 146.791 26.2005 146.791 25.3438C146.791 24.569 146.937 23.8809 147.229 23.2793C147.52 22.6777 147.949 22.1719 148.514 21.7617C149.088 21.3424 149.803 21.028 150.66 20.8184C151.517 20.5996 152.51 20.4902 153.641 20.4902H155.924ZM171.141 26.2734V8.5H175.105V29.5H171.537L171.141 26.2734ZM161.789 22.2812V21.9941C161.789 20.8639 161.917 19.8385 162.172 18.918C162.427 17.9883 162.801 17.1908 163.293 16.5254C163.785 15.86 164.391 15.3451 165.111 14.9805C165.831 14.6159 166.652 14.4336 167.572 14.4336C168.438 14.4336 169.195 14.6159 169.842 14.9805C170.498 15.3451 171.054 15.8646 171.51 16.5391C171.975 17.2044 172.348 17.9928 172.631 18.9043C172.913 19.8066 173.118 20.7956 173.246 21.8711V22.5C173.118 23.5299 172.913 24.487 172.631 25.3711C172.348 26.2552 171.975 27.0299 171.51 27.6953C171.054 28.3516 170.498 28.862 169.842 29.2266C169.186 29.5911 168.42 29.7734 167.545 29.7734C166.624 29.7734 165.804 29.5866 165.084 29.2129C164.373 28.8392 163.771 28.3151 163.279 27.6406C162.796 26.9661 162.427 26.1732 162.172 25.2617C161.917 24.3503 161.789 23.3568 161.789 22.2812ZM165.727 21.9941V22.2812C165.727 22.8919 165.772 23.4616 165.863 23.9902C165.964 24.5189 166.123 24.9883 166.342 25.3984C166.57 25.7995 166.861 26.1139 167.217 26.3418C167.581 26.5605 168.023 26.6699 168.543 26.6699C169.217 26.6699 169.773 26.5195 170.211 26.2188C170.648 25.9089 170.981 25.485 171.209 24.9473C171.446 24.4095 171.583 23.7897 171.619 23.0879V21.2969C171.592 20.7227 171.51 20.2077 171.373 19.752C171.245 19.2871 171.054 18.8906 170.799 18.5625C170.553 18.2344 170.243 17.9792 169.869 17.7969C169.505 17.6146 169.072 17.5234 168.57 17.5234C168.06 17.5234 167.622 17.6419 167.258 17.8789C166.893 18.1068 166.597 18.4212 166.369 18.8223C166.15 19.2233 165.986 19.6973 165.877 20.2441C165.777 20.7819 165.727 21.3652 165.727 21.9941ZM184.99 29.7734C183.842 29.7734 182.812 29.5911 181.9 29.2266C180.989 28.8529 180.214 28.3379 179.576 27.6816C178.947 27.0254 178.464 26.2643 178.127 25.3984C177.79 24.5234 177.621 23.5938 177.621 22.6094V22.0625C177.621 20.9414 177.781 19.916 178.1 18.9863C178.419 18.0566 178.874 17.25 179.467 16.5664C180.068 15.8828 180.798 15.3587 181.654 14.9941C182.511 14.6204 183.477 14.4336 184.553 14.4336C185.601 14.4336 186.531 14.6068 187.342 14.9531C188.153 15.2995 188.832 15.7917 189.379 16.4297C189.935 17.0677 190.354 17.8333 190.637 18.7266C190.919 19.6107 191.061 20.5951 191.061 21.6797V23.3203H179.303V20.6953H187.191V20.3945C187.191 19.8477 187.091 19.36 186.891 18.9316C186.699 18.4941 186.408 18.1478 186.016 17.8926C185.624 17.6374 185.122 17.5098 184.512 17.5098C183.992 17.5098 183.546 17.6237 183.172 17.8516C182.798 18.0794 182.493 18.3984 182.256 18.8086C182.028 19.2188 181.855 19.7018 181.736 20.2578C181.627 20.8047 181.572 21.4062 181.572 22.0625V22.6094C181.572 23.2018 181.654 23.7487 181.818 24.25C181.992 24.7513 182.233 25.1842 182.543 25.5488C182.862 25.9134 183.245 26.196 183.691 26.3965C184.147 26.597 184.662 26.6973 185.236 26.6973C185.947 26.6973 186.608 26.5605 187.219 26.2871C187.839 26.0046 188.372 25.5807 188.818 25.0156L190.732 27.0938C190.423 27.5404 189.999 27.9688 189.461 28.3789C188.932 28.7891 188.294 29.1263 187.547 29.3906C186.799 29.6458 185.947 29.7734 184.99 29.7734ZM197.24 17.7695V29.5H193.289V14.707H196.994L197.24 17.7695ZM196.693 21.584H195.6C195.6 20.554 195.723 19.6061 195.969 18.7402C196.224 17.8652 196.593 17.1087 197.076 16.4707C197.568 15.8236 198.174 15.3223 198.895 14.9668C199.615 14.6113 200.449 14.4336 201.396 14.4336C202.053 14.4336 202.654 14.5339 203.201 14.7344C203.748 14.9258 204.217 15.2311 204.609 15.6504C205.01 16.0605 205.32 16.5983 205.539 17.2637C205.758 17.9199 205.867 18.7083 205.867 19.6289V29.5H201.93V20.0664C201.93 19.3919 201.839 18.8724 201.656 18.5078C201.474 18.1432 201.214 17.888 200.877 17.7422C200.549 17.5964 200.152 17.5234 199.688 17.5234C199.177 17.5234 198.73 17.6283 198.348 17.8379C197.974 18.0475 197.664 18.3392 197.418 18.7129C197.172 19.0775 196.99 19.5059 196.871 19.998C196.753 20.4902 196.693 21.0189 196.693 21.584ZM205.498 21.1328L204.09 21.3105C204.09 20.3444 204.208 19.4466 204.445 18.6172C204.691 17.7878 205.051 17.0586 205.525 16.4297C206.008 15.8008 206.605 15.3132 207.316 14.9668C208.027 14.6113 208.848 14.4336 209.777 14.4336C210.488 14.4336 211.135 14.5384 211.719 14.748C212.302 14.9486 212.799 15.2721 213.209 15.7188C213.628 16.1562 213.947 16.7305 214.166 17.4414C214.394 18.1523 214.508 19.0228 214.508 20.0527V29.5H210.557V20.0527C210.557 19.3691 210.465 18.8496 210.283 18.4941C210.11 18.1296 209.855 17.8789 209.518 17.7422C209.189 17.5964 208.798 17.5234 208.342 17.5234C207.868 17.5234 207.453 17.6191 207.098 17.8105C206.742 17.9928 206.446 18.248 206.209 18.5762C205.972 18.9043 205.794 19.2871 205.676 19.7246C205.557 20.153 205.498 20.6224 205.498 21.1328ZM221.945 27.832L225.869 14.707H230.094L224.146 31.7285C224.019 32.1022 223.846 32.5033 223.627 32.9316C223.417 33.36 223.13 33.7656 222.766 34.1484C222.41 34.5404 221.959 34.8594 221.412 35.1055C220.874 35.3516 220.214 35.4746 219.43 35.4746C219.056 35.4746 218.751 35.4518 218.514 35.4062C218.277 35.3607 217.994 35.2969 217.666 35.2148V32.3301C217.766 32.3301 217.871 32.3301 217.98 32.3301C218.09 32.3392 218.195 32.3438 218.295 32.3438C218.814 32.3438 219.238 32.2845 219.566 32.166C219.895 32.0475 220.159 31.8652 220.359 31.6191C220.56 31.3822 220.719 31.0723 220.838 30.6895L221.945 27.832ZM220.305 14.707L223.518 25.4258L224.078 29.5957L221.398 29.8828L216.08 14.707H220.305Z" fill="white"/>
<defs>
<clipPath id="clip0_802_380">
<rect width="40" height="40" fill="white" transform="translate(0.5)"/>
</clipPath>
</defs>
</svg>
